<?xml version="1.0" encoding="iso-8859-1"?>
<!-- Generator: Adobe Illustrator 18.0.0, SVG Export Plug-In . SVG Version: 6.00 Build 0)  -->
<!DOCTYPE svg PUBLIC "-//W3C//DTD SVG 1.1//EN" "http://www.w3.org/Graphics/SVG/1.1/DTD/svg11.dtd">

<svg version="1.1" fill="#38d493" id="Capa_1" xmlns="http://www.w3.org/2000/svg"
                                    xmlns:xlink="http://www.w3.org/1999/xlink" x="0px" y="0px"
                                    viewBox="0 0 409.692 409.692" style="enable-background:new 0 0 409.692 409.692;"
                                    xml:space="preserve">
                                    <g>
                                        <path
                                            d="M120.268,155.327c-0.456,0.689-0.889,1.355-1.295,1.991C119.379,156.683,119.813,156.016,120.268,155.327z" />
                                        <path
                                            d="M118.973,252.374c0.4,0.625,0.824,1.279,1.273,1.957C119.8,253.655,119.373,252.999,118.973,252.374z" />
                                        <path
                                            d="M289.436,254.347c0.451-0.683,0.881-1.343,1.283-1.973C290.317,253.004,289.886,253.665,289.436,254.347z" />
                                        <path d="M345.358,109.052c-11.996-17.541-27.188-32.729-44.729-44.725C285.153,26.627,248.057,0,204.846,0
                    		c-43.207,0-80.295,26.624-95.772,64.318C91.52,76.32,76.321,91.52,64.319,109.073c-37.695,15.477-64.318,52.565-64.318,95.773
                    		c0,43.217,26.627,80.327,64.338,95.799c11.994,17.538,27.184,32.726,44.723,44.72c15.475,37.702,52.572,64.327,95.785,64.327
                    		c43.207,0,80.295-26.624,95.773-64.319c17.555-12.002,32.752-27.201,44.754-44.756c37.695-15.477,64.318-52.563,64.318-95.77
                    		C409.692,161.631,383.063,124.525,345.358,109.052z M295.378,77.724c14.721,10.514,27.539,23.522,37.85,38.396l-42.508,41.199
                    		c-1.619-2.53-3.639-5.52-6-8.724l0,0c-7.551-10.248-18.689-22.762-32.166-30.053l39.195-37.359
                    		c-0.005-0.004-0.01-0.007-0.014-0.011L295.378,77.724z M122.21,204.847c0-45.566,37.07-82.637,82.637-82.637
                    		s82.637,37.07,82.637,82.637c0,45.565-37.07,82.636-82.637,82.636S122.21,250.412,122.21,204.847z M204.846,14
                    		c29.709,0,56.074,14.557,72.363,36.906c-21.973-10.37-46.5-16.182-72.363-16.182s-50.391,5.812-72.363,16.181
                    		C148.772,28.557,175.137,14,204.846,14z M204.846,48.725c28.576,0,55.379,7.724,78.441,21.184l-46.051,43.893
                    		c-10.131-3.615-21.033-5.591-32.391-5.591c-11.357,0-22.262,1.976-32.393,5.591l-46.051-43.893
                    		C149.467,56.448,176.27,48.725,204.846,48.725z M114.313,77.724l42.824,40.818c-13.51,7.309-24.669,19.865-32.22,30.127
                    		c-1.745,2.372-3.307,4.626-4.649,6.658c-0.455,0.688-0.889,1.355-1.295,1.991l-42.51-41.199
                    		C86.774,101.246,99.592,88.237,114.313,77.724z M50.905,132.484c-10.369,21.971-16.18,46.499-16.18,72.362
                    		c0,25.866,5.813,50.398,16.186,72.372C28.557,260.932,14,234.56,14,204.847C14,204.847,12.346,165.597,50.905,132.484z
                    		 M48.725,204.847c0-27.821,7.322-53.96,20.129-76.606l45.117,43.729c-3.727,10.268-5.762,21.339-5.762,32.878
                    		c0,11.539,2.035,22.61,5.762,32.878l-45.117,43.729C56.047,258.807,48.725,232.667,48.725,204.847z M76.463,293.574l42.51-41.2
                    		c0.399,0.625,0.827,1.281,1.273,1.957c1.332,2.019,2.882,4.258,4.613,6.613c7.552,10.277,18.732,22.879,32.277,30.207
                    		l-36.265,34.564l-6.56,6.253C99.592,321.455,86.774,308.447,76.463,293.574z M204.846,395.692
                    		c-29.709,0-56.074-14.556-72.361-36.904c21.971,10.369,46.498,16.181,72.361,16.181s50.393-5.813,72.365-16.183
                    		C260.924,381.137,234.555,395.692,204.846,395.692z M204.846,360.969c-28.576,0-55.379-7.725-78.443-21.184l46.053-43.893
                    		c10.131,3.615,21.033,5.59,32.391,5.59c11.357,0,22.26-1.975,32.391-5.59l46.051,43.893
                    		C260.223,353.244,233.422,360.969,204.846,360.969z M295.378,331.969l-3.486-3.303c0.004-0.003,0.008-0.006,0.012-0.009
                    		l-39.35-37.506c13.603-7.359,24.82-20.037,32.374-30.339c1.686-2.3,3.199-4.486,4.509-6.466c0.45-0.682,0.881-1.343,1.283-1.973
                    		l42.508,41.2C322.917,308.447,310.098,321.455,295.378,331.969z M340.836,281.453l-45.117-43.729
                    		c3.727-10.267,5.764-21.339,5.764-32.878c0-11.539-2.037-22.61-5.764-32.878l45.117-43.729
                    		c12.807,22.646,20.131,48.785,20.131,76.606C360.967,232.667,353.643,258.807,340.836,281.453z M358.786,277.21
                    		c10.369-21.972,16.182-46.5,16.182-72.363s-5.813-50.391-16.182-72.361c22.35,16.288,36.906,42.652,36.906,72.361
                    		S381.135,260.922,358.786,277.21z" />
                                    </g>
                                    <g>
                                    </g>
                                    <g>
                                    </g>
                                    <g>
                                    </g>
                                    <g>
                                    </g>
                                    <g>
                                    </g>
                                    <g>
                                    </g>
                                    <g>
                                    </g>
                                    <g>
                                    </g>
                                    <g>
                                    </g>
                                    <g>
                                    </g>
                                    <g>
                                    </g>
                                    <g>
                                    </g>
                                    <g>
                                    </g>
                                    <g>
                                    </g>
                                    <g>
                                    </g>
                                </svg>
